M48
METRIC,TZ
T1C0.701
T2C0.762
T3C0.800
T4C0.800
T5C0.813
T6C1.001
T7C1.016
T8C2.301
%
G90
G05
T1
X130813Y-142241
X130813Y-152401
X138433Y-142241
X138433Y-152401
T2
X140970Y-121920
X140970Y-127000
T3
X139700Y-115570
X139700Y-133350
X148501Y-105004
X148501Y-107544
X148501Y-110084
X148501Y-112624
X148501Y-115164
X148501Y-117704
X148501Y-120244
X148501Y-122784
X148501Y-125324
X148501Y-127864
X148501Y-130404
X148501Y-132944
X148501Y-135484
X148501Y-138024
X156121Y-105004
X156121Y-107544
X156121Y-110084
X156121Y-112624
X156121Y-115164
X156121Y-117704
X156121Y-120244
X156121Y-122784
X156121Y-125324
X156121Y-127864
X156121Y-130404
X156121Y-132944
X156121Y-135484
X156121Y-138024
T4
X142200Y-115570
X142200Y-133350
T5
X151130Y-149860
X151130Y-151859
X153670Y-149860
X153670Y-151859
T6
X134620Y-105410
X134620Y-110490
X134620Y-118110
X134620Y-128270
X134620Y-138430
X144780Y-105410
X144780Y-110490
X144780Y-138430
T7
X163830Y-105410
X163830Y-107950
X163830Y-110490
X163830Y-113030
X163830Y-115570
X163830Y-118110
X163830Y-128270
X163830Y-130810
X163830Y-133350
X163830Y-135890
X163830Y-138430
X163830Y-140970
X166370Y-105410
X166370Y-107950
X166370Y-110490
X166370Y-113030
X166370Y-115570
X166370Y-118110
X166370Y-128270
X166370Y-130810
X166370Y-133350
X166370Y-135890
X166370Y-138430
X166370Y-140970
T8
X146401Y-154559
X158399Y-154559
T0
M30
